<svg width="20" height="20" viewBox="0 0 20 20" fill="none" xmlns="http://www.w3.org/2000/svg">
<path d="M3.42462 2.57538C3.81515 2.18485 4.44831 2.18485 4.83883 2.57538L17.5668 15.3033C17.9573 15.6938 17.9573 16.327 17.5668 16.7175L16.6829 17.6014C16.2923 17.9919 15.6592 17.9919 15.2687 17.6014L2.54074 4.87348C2.15021 4.48295 2.15021 3.84979 2.54074 3.45926L3.42462 2.57538Z" fill="white"/>
<path d="M17.5668 3.28249C17.9573 3.67301 17.9573 4.30618 17.5668 4.6967L4.83883 17.4246C4.44831 17.8151 3.81515 17.8151 3.42462 17.4246L2.54074 16.5407C2.15021 16.1502 2.15021 15.517 2.54074 15.1265L15.2687 2.3986C15.6592 2.00808 16.2923 2.00808 16.6829 2.3986L17.5668 3.28249Z" fill="white"/>
</svg>
