<svg width="130" height="177" viewBox="0 0 130 177" fill="none" xmlns="http://www.w3.org/2000/svg">
<path d="M73.3627 98H91.2188V174.8H73.3627V98ZM107.635 174.8L88.1468 137.744L110.035 98H129.043L107.731 136.88L127.699 174.8H107.635Z" fill="white"/>
<path d="M19.968 153.296C20.736 155.728 22.048 157.584 23.904 158.864C25.824 160.08 28.256 160.688 31.2 160.688C34.336 160.688 36.8 159.984 38.592 158.576C40.384 157.168 41.28 155.216 41.28 152.72C41.28 150.992 40.672 149.552 39.456 148.4C38.24 147.184 36.608 146.416 34.56 146.096L24.576 144.656C17.728 143.568 12.448 140.976 8.73599 136.88C5.02399 132.72 3.16799 127.376 3.16799 120.848C3.16799 115.728 4.28799 111.344 6.52799 107.696C8.83199 103.984 12.064 101.136 16.224 99.152C20.448 97.104 25.472 96.08 31.296 96.08C37.12 96.08 42.144 97.072 46.368 99.056C50.592 101.04 53.856 103.92 56.16 107.696C58.528 111.472 59.872 116.048 60.192 121.424H43.296C42.528 118.352 41.12 116.048 39.072 114.512C37.088 112.912 34.496 112.112 31.296 112.112C27.968 112.112 25.376 112.848 23.52 114.32C21.664 115.728 20.736 117.68 20.736 120.176C20.736 121.904 21.344 123.376 22.56 124.592C23.776 125.744 25.408 126.512 27.456 126.896L37.44 128.336C44.288 129.424 49.568 132.048 53.28 136.208C56.992 140.304 58.848 145.584 58.848 152.048C58.848 157.168 57.728 161.584 55.488 165.296C53.248 168.944 50.048 171.76 45.888 173.744C41.792 175.728 36.864 176.72 31.104 176.72C25.408 176.72 20.448 175.824 16.224 174.032C12.064 172.176 8.79999 169.488 6.43199 165.968C4.06399 162.448 2.71999 158.224 2.39999 153.296H19.968Z" fill="white"/>
<path d="M66.0667 76.8L82.5787 0H112.723L129.235 76.8H111.187L98.1307 13.152H96.2107L82.8667 76.8H66.0667ZM79.0267 55.584V38.496H116.179V55.584H79.0267Z" fill="white"/>
<path d="M21.408 76.8V17.184H0V0H60.864V17.184H39.456V76.8H21.408Z" fill="white"/>
</svg>
