<svg width="219" height="219" viewBox="0 0 219 219" fill="none" xmlns="http://www.w3.org/2000/svg">
<path d="M0 10C0 4.47715 4.47715 0 10 0H209C214.523 0 219 4.47715 219 10V209C219 214.523 214.523 219 209 219H10C4.47715 219 0 214.523 0 209V10Z" fill="#6C698D"/>
<path d="M90.504 160V71.296H60.296V57.6H135.304V71.296H105.096V160H90.504Z" fill="white"/>
<path d="M118.256 142.336C119.152 145.344 120.784 147.648 123.152 149.248C125.52 150.848 128.56 151.648 132.272 151.648C136.112 151.648 139.056 150.976 141.104 149.632C143.152 148.224 144.176 146.24 144.176 143.68C144.176 141.952 143.344 140.512 141.68 139.36C140.016 138.208 137.552 137.408 134.288 136.96L127.28 135.904C121.008 134.944 116.368 133.088 113.36 130.336C110.352 127.584 108.848 123.744 108.848 118.816C108.848 113.248 110.896 108.864 114.992 105.664C119.152 102.464 124.848 100.864 132.08 100.864C139.44 100.864 145.264 102.656 149.552 106.24C153.84 109.824 156.112 114.816 156.368 121.216H146.768C145.872 117.824 144.176 115.232 141.68 113.44C139.184 111.648 135.92 110.752 131.888 110.752C127.856 110.752 124.752 111.456 122.576 112.864C120.4 114.208 119.312 116.16 119.312 118.72C119.312 120.448 120.144 121.888 121.808 123.04C123.472 124.192 125.936 124.992 129.2 125.44L136.208 126.496C142.544 127.456 147.184 129.312 150.128 132.064C153.136 134.816 154.64 138.656 154.64 143.584C154.64 147.296 153.712 150.496 151.856 153.184C150.064 155.872 147.504 157.952 144.176 159.424C140.848 160.832 136.848 161.536 132.176 161.536C125.008 161.536 119.344 159.84 115.184 156.448C111.088 153.056 108.848 148.352 108.464 142.336H118.256Z" fill="white"/>
</svg>
